<svg width="18" height="19" viewBox="0 0 18 19" fill="none" xmlns="http://www.w3.org/2000/svg">
<path d="M9.02254 13.5493C11.2711 13.5493 13.0939 11.7256 13.0939 9.47583C13.0939 7.22611 11.2711 5.40234 9.02254 5.40234C6.77399 5.40234 4.95117 7.22611 4.95117 9.47583C4.95117 11.7256 6.77399 13.5493 9.02254 13.5493Z" fill="white"/>
<path d="M9.68689 0.476562H8.36133V3.98165H9.68689V0.476562Z" fill="white"/>
<path d="M9.68689 14.9727H8.36133V18.4778H9.68689V14.9727Z" fill="white"/>
<path d="M14.4961 8.84562V10.1719H17.9994V8.84562H14.4961Z" fill="white"/>
<path d="M0 8.79875L0 10.125H3.50327V8.79875H0Z" fill="white"/>
<path d="M2.19356 15.3161L3.13086 16.2539L5.60802 13.7755L4.67072 12.8377L2.19356 15.3161Z" fill="white"/>
<path d="M13.4041 12.9353L12.4668 13.873L14.944 16.3515L15.8813 15.4137L13.4041 12.9353Z" fill="white"/>
<path d="M3.13262 2.5876L2.19531 3.52539L4.67247 6.00384L5.60978 5.06605L3.13262 2.5876Z" fill="white"/>
<path d="M12.4709 5.10127L13.4082 6.03906L15.8854 3.56061L14.9481 2.62282L12.4709 5.10127Z" fill="white"/>
</svg>
