<?xml version="1.0" encoding="utf-8"?>
<!-- Generator: Adobe Illustrator 22.1.0, SVG Export Plug-In . SVG Version: 6.00 Build 0)  -->
<svg version="1.1" id="Слой_1" xmlns="http://www.w3.org/2000/svg" xmlns:xlink="http://www.w3.org/1999/xlink" x="0px" y="0px"
	 viewBox="0 0 66 109" style="enable-background:new 0 0 66 109;" xml:space="preserve">
<style type="text/css">
	.st0{fill:#FFFFFF;}
	.st1{fill:#FBE5E9;}
	.st2{fill:#E4192B;}
</style>
<g id="Слой_4">
</g>
<g id="Слой_7">
</g>
<g>
	<path class="st0" d="M58.7,48.1l-1.1-3.2c0-0.1-0.2-0.2-0.3-0.2l-1.9,0.1l0.4-9.9c0,0,0-0.1,0-0.1l-2.3-11.1c0,0,0-0.1-0.1-0.1
		l-6.2-8.1c0-0.1-0.1-0.1-0.2-0.1l-10-3c0,0,0,0-0.1,0l-17.8-0.9c-0.1,0-0.2,0.1-0.3,0.2c-0.1,0.1,0,0.2,0,0.3l1.4,1.7l-2.9,0.4
		c-0.1,0-0.2,0.1-0.3,0.2c0,0.1,0,0.3,0.1,0.3l1.9,1.6l-7.6,3.6c-0.1,0.1-0.2,0.2-0.2,0.4c0,0.1,0.2,0.2,0.3,0.3l3,0l-4.8,4.3
		c-0.1,0.1-0.1,0.1-0.1,0.2L8.8,35.3c0,0,0,0.1,0,0.1l1.1,3.8l0.5,2.4l0.2,1.3c0,0.1,0.1,0.2,0.3,0.3l0,0l0.1,0.4
		c-0.2,0-0.3,0.2-0.3,0.4l0.5,2.3l-1.6-1.7c-0.1-0.1-0.2-0.1-0.3-0.1L8,44.9c-0.1,0-0.2,0.1-0.2,0.2L7.2,48c0,0.1,0,0.1,0,0.2
		l2.1,5.1l-0.1,1.9c0,0.1,0,0.1,0.1,0.2l2.2,3.4c0,0.1,0.1,0.1,0.2,0.1l2.1,0.7l0,0l2.7,7.8c0,0,0,0.1,0.1,0.1l3,3.3l0.7,3.6
		c0,0-0.1,0.1-0.1,0.1l-2.8,4.4c0,0,0,0.1,0,0.1l-1.6,9l0,0L15,96.4c0,0.2,0.1,0.3,0.3,0.3c0.2,0,0.3-0.1,0.4-0.2l1.7-6l2.9-0.6
		l3.3,3.2c0.1,0.1,0.1,0.1,0.2,0.1l0.3,1.8c0,0.2,0.2,0.3,0.4,0.3c0,0,0.1,0,0.1,0v0.1c0,0.2,0.1,0.3,0.3,0.3c0.2,0,0.3-0.1,0.3-0.3
		l0.2-3.5l7.8,5.6c0.1,0.1,0.3,0.1,0.4,0l21.3-19c0.1-0.1,0.1-0.2,0.1-0.3l-3.1-10.6c0-0.1-0.1-0.2-0.2-0.2l-1.8-0.5l0.7-7.3
		l1.5-0.1c0.1,0,0.1,0,0.2-0.1l3-1.9c0.1,0,0.1-0.1,0.1-0.2l3.4-8.9C58.8,48.3,58.8,48.2,58.7,48.1z"/>
	<polygon class="st1" points="19.6,70.7 23.8,79.3 27,82.3 33.1,82 46,71.2 46.5,66.9 36.1,75.5 28.7,76.9 23.5,75.5 	"/>
	<path class="st1" d="M11.6,44.8L13,38c0,0,3.2-9.2,2.2-9.6s-3.5-1-3.5-1l-1.1,14.9L11.6,44.8z"/>
	<polygon class="st1" points="14.6,48.7 15,45.2 20.4,45.2 24.2,46.4 25.2,47.6 25.3,48.9 22,46.9 18.5,47.1 15.6,49.4 	"/>
	<path class="st1" d="M32.5,46.1l-2.8,1.1l1.3,2l1,0l3.5-1.9l4-0.1l3.2,1.6l1.9-1c0,0-1.6-2.6-1.7-2.6c-0.1,0-6.6,0.1-6.6,0.1
		L32.5,46.1z"/>
	<path class="st1" d="M23.2,60.2l-0.3,0.6l0.2,1.5l1.3,0.3l2.9-0.4c0,0,1.8-0.1,2.3-0.2c0.5-0.1,2.7-0.9,2.7-0.9l0.3-1l-0.9-0.5
		l-2.9,0.2L27,60.1l-2.5-0.5L23.2,60.2z"/>
	<polyline class="st1" points="25.1,69.6 24.3,72.2 26.4,72.6 29.6,71.7 31.1,70.2 30.9,69.6 25.3,69.6 	"/>
	<path class="st2" d="M52.6,47.4l2.2-1.8l2.4-0.2l1,2.9L54.7,57L52,58.8l-2.7,0.1c-0.2,0-0.3,0.2-0.3,0.3c0,0.2,0.2,0.3,0.3,0.3
		l2.8-0.1c0.1,0,0.1,0,0.2-0.1l3-1.9c0.1,0,0.1-0.1,0.1-0.2l3.4-8.9c0-0.1,0-0.1,0-0.2l-1.1-3.2c0-0.1-0.2-0.2-0.3-0.2l-2.7,0.2
		c-0.1,0-0.1,0-0.2,0.1l-2.3,1.9c-0.1,0.1-0.2,0.3,0,0.4C52.2,47.5,52.4,47.5,52.6,47.4L52.6,47.4z"/>
	<path class="st2" d="M49.9,59.3l-1.2,12.8c0,0.2,0.1,0.3,0.3,0.3c0.2,0,0.3-0.1,0.3-0.3l1.2-12.8c0-0.2-0.1-0.3-0.3-0.3
		C50.1,59,50,59.1,49.9,59.3"/>
	<path class="st2" d="M19.5,70.7l2.3,11.8L24.1,95c0,0.2,0.2,0.3,0.4,0.3c0.2,0,0.3-0.2,0.3-0.4l-2.3-12.6l0,0l-2.3-11.8
		c0-0.2-0.2-0.3-0.4-0.3C19.6,70.3,19.5,70.5,19.5,70.7L19.5,70.7z"/>
	<path class="st2" d="M57.5,47.9l-1.4-1.2c-0.1-0.1-0.1-0.1-0.2-0.1c-0.1,0-0.2,0-0.2,0.1c0,0-0.2,0.2-0.5,0.6
		c-0.5,0.6-1.1,1.4-1.8,2.1c-0.3,0.4-0.6,0.7-0.8,1c-0.2,0.3-0.4,0.5-0.5,0.5C52,51.1,52,51.2,52,51.3l0.6,2L52,54.8
		c-0.1,0.2,0,0.3,0.2,0.4c0.2,0.1,0.3,0,0.4-0.2l0.7-1.6c0-0.1,0-0.2,0-0.2l-0.7-2.1l-0.3,0.1l0.2,0.2c0-0.1,0.1-0.2,0.3-0.3
		c0.8-1,3.3-4,3.3-4l-0.2-0.2l-0.2,0.2l1.4,1.2c0.1,0.1,0.3,0.1,0.4,0C57.6,48.2,57.6,48,57.5,47.9L57.5,47.9z"/>
	<path class="st2" d="M12.1,47l-2.4-2.5c-0.1-0.1-0.2-0.1-0.3-0.1L8,44.9c-0.1,0-0.2,0.1-0.2,0.2L7.2,48c0,0.1,0,0.1,0,0.2l2.1,5.1
		l-0.1,1.9c0,0.1,0,0.1,0.1,0.2l2.2,3.4c0,0.1,0.1,0.1,0.2,0.1l2.1,0.7c0.2,0.1,0.3,0,0.4-0.2c0.1-0.2,0-0.3-0.2-0.4l-2-0.7
		l-2.1-3.2l0.1-1.9c0,0,0-0.1,0-0.1L7.9,48l0.6-2.6l1-0.4l2.2,2.4c0.1,0.1,0.3,0.1,0.5,0C12.2,47.4,12.3,47.2,12.1,47L12.1,47z"/>
	<path class="st2" d="M10,53.3l0.6-3.8c0-0.2-0.1-0.3-0.3-0.4c-0.2,0-0.3,0.1-0.4,0.3l-0.6,3.8c0,0.2,0.1,0.3,0.3,0.4
		C9.8,53.6,10,53.5,10,53.3"/>
	<path class="st2" d="M32.3,48.9l1.9-1.3l5.2,0l2.7,1.5c0.2,0.1,0.3,0,0.4-0.1c0.1-0.2,0-0.3-0.1-0.4L39.6,47c0,0-0.1,0-0.2,0
		L34.1,47C34,47,34,47,33.9,47l-2,1.4c-0.1,0.1-0.2,0.3-0.1,0.4C32,49,32.2,49,32.3,48.9L32.3,48.9z"/>
	<path class="st2" d="M15.7,48.5l1.6-1.2l4.6-0.2l2.9,2c0.1,0.1,0.3,0.1,0.4-0.1c0.1-0.1,0.1-0.3-0.1-0.4l-3-2.1
		c-0.1,0-0.1-0.1-0.2-0.1l-4.8,0.2c-0.1,0-0.1,0-0.2,0.1L15.3,48c-0.1,0.1-0.2,0.3-0.1,0.4C15.3,48.6,15.5,48.6,15.7,48.5L15.7,48.5
		z"/>
	<path class="st2" d="M10.9,43.9l0.7,3.8l-0.4,4.6c0,0,0,0.1,0,0.1l5.2,15c0,0,0,0.1,0.1,0.1l4.4,4.9l3,4.4c0,0,0.1,0.1,0.1,0.1
		l2.3,1.4c0.1,0,0.1,0,0.2,0l6.1,0.1c0,0,0.1,0,0.1,0l3.7-1.7c0,0,0.1,0,0.1-0.1l9.2-8.2c0,0,0,0,0.1-0.1l1.7-2.8c0,0,0-0.1,0-0.1
		L51,52.5c0-0.2-0.1-0.3-0.2-0.4c-0.2,0-0.3,0.1-0.4,0.2L47,65.4l-1.7,2.8l-9.1,8.1l-3.6,1.6l-5.9-0.1l-2.1-1.3l-3-4.4l0,0l-4.4-4.9
		l-5.2-14.8l0.4-4.6c0,0,0-0.1,0-0.1l-0.8-3.9c0-0.2-0.2-0.3-0.4-0.3C11,43.5,10.9,43.7,10.9,43.9L10.9,43.9z"/>
	<path class="st2" d="M55.1,44.9l0.4-10l-2.3-11.1L47,15.7l-10-3l-17.8-0.9l1.7,2.1l-3.5,0.5l2.3,1.9l-8,3.8l3.8,0.1L10,25.1
		L9.2,35.3l1.1,3.8l0.5,2.4l0.2,1.3c0.2-0.4,1.9-5.6,1.9-5.6s-0.4-2.8-0.3-2.9c0.1-0.2,1.4-5.5,1.4-5.5l7.5,1.3l20-2.3l1.6-6.4
		l0.2,6.1l2.8,2.5l-0.2,4l0.4,5.6l3.2,5.6l0.4,4.8l0.8,0.6l2-3.5L55.1,44.9z"/>
	<path class="st2" d="M55.1,44.9l0.3,0l0.4-10c0,0,0-0.1,0-0.1l-2.3-11.1c0,0,0-0.1-0.1-0.1l-6.2-8.1c0-0.1-0.1-0.1-0.2-0.1l-10-3
		c0,0,0,0-0.1,0l-17.8-0.9c-0.1,0-0.2,0.1-0.3,0.2c-0.1,0.1,0,0.2,0,0.3l1.4,1.7l-2.9,0.4c-0.1,0-0.2,0.1-0.3,0.2
		c0,0.1,0,0.3,0.1,0.3l1.9,1.6l-7.6,3.6c-0.1,0.1-0.2,0.2-0.2,0.4c0,0.1,0.2,0.2,0.3,0.3l3,0l-4.8,4.3c-0.1,0.1-0.1,0.1-0.1,0.2
		L8.9,35.3c0,0,0,0.1,0,0.1l1.1,3.8l0.5,2.4l0.2,1.3c0,0.1,0.1,0.2,0.3,0.3c0.1,0,0.3-0.1,0.3-0.2c0-0.1,0.1-0.2,0.1-0.4
		c0.4-1.3,1.7-5.3,1.7-5.3c0,0,0-0.1,0-0.1c0,0,0-0.2,0-0.4c0-0.4-0.1-0.9-0.2-1.4c0-0.2-0.1-0.5-0.1-0.7c0-0.2,0-0.3,0-0.4l0,0l0,0
		l-0.1,0l0.1,0l0,0l-0.1,0l0.1,0l-0.3,0l0.2,0.1c0,0,0,0,0,0l-0.3,0l0.2,0.1l-0.3-0.1l0.3,0.1c0,0,0,0,0,0c0-0.1,0.1-0.5,0.3-1
		c0.4-1.6,1.1-4.4,1.1-4.4l-0.3-0.1l-0.1,0.3l7.5,1.3c0,0,0.1,0,0.1,0l20-2.3c0.1,0,0.2-0.1,0.3-0.2l1-4.2l0.1,3.8
		c0,0.1,0,0.2,0.1,0.2l2.7,2.4l-0.1,3.8l0,0l0.4,5.6c0,0,0,0.1,0,0.1l3.2,5.5l0.3,4.7c0,0.1,0,0.2,0.1,0.2l0.8,0.6
		c0.1,0.1,0.2,0.1,0.3,0.1s0.2-0.1,0.2-0.2l2-3.4l2.5-2.1c0.1-0.1,0.1-0.1,0.1-0.2L55.1,44.9l-0.2-0.2l-2.6,2.1c0,0-0.1,0.1-0.1,0.1
		L50.4,50l-0.4-0.3l-0.3-4.6c0,0,0-0.1,0-0.1l-3.2-5.5l-0.4-5.5l0.2-4c0-0.1,0-0.2-0.1-0.3l-2.7-2.4l-0.2-6c0-0.2-0.1-0.3-0.3-0.3
		c-0.2,0-0.3,0.1-0.3,0.2l-1.5,6.2l-19.7,2.3L14,28.5c-0.2,0-0.3,0.1-0.4,0.2c0,0-0.1,0.3-0.2,0.8c-0.2,0.7-0.5,1.9-0.7,2.8
		c-0.1,0.5-0.2,0.9-0.3,1.2c0,0.2-0.1,0.3-0.1,0.4c0,0,0,0.1,0,0.1l0,0l0,0l0,0l0.2,0.1l-0.2-0.1l0,0l0.2,0.1l-0.2-0.1l0,0
		c0,0.1,0,0.1,0,0.1c0,0,0,0,0,0.1c0,0.1,0,0.2,0,0.3c0,0.4,0.1,1,0.2,1.6c0.1,0.6,0.1,1,0.1,1l0.3,0l-0.3-0.1c0,0-0.1,0.3-0.3,0.8
		c-0.2,0.7-0.6,1.9-0.9,2.8c-0.2,0.5-0.3,0.9-0.4,1.3c-0.1,0.2-0.1,0.3-0.1,0.4c0,0.1-0.1,0.2-0.1,0.2l0.3,0.1l0.3-0.1l-0.2-1.3l0,0
		l-0.5-2.4l0,0l-1.1-3.8l0.8-10.1l5.3-4.8c0.1-0.1,0.1-0.2,0.1-0.3c0-0.1-0.2-0.2-0.3-0.2l-2.4,0l6.8-3.2c0.1,0,0.2-0.1,0.2-0.2
		c0-0.1,0-0.2-0.1-0.3l-1.7-1.5l2.8-0.4c0.1,0,0.2-0.1,0.3-0.2c0-0.1,0-0.2,0-0.3l-1.3-1.6l17,0.8l9.9,2.9l6.1,7.9l2.3,11l-0.4,10
		L55.1,44.9l-0.2-0.2L55.1,44.9z"/>
	<polyline class="st2" points="31.8,46.2 32.4,45.5 39.5,44.4 43,45.5 39.1,45.7 31.8,46.4 	"/>
	<polygon class="st2" points="23.8,46.2 21.5,44.9 16.6,43.9 14.5,45.4 16.5,45.3 21.6,45.8 	"/>
	<path class="st2" d="M35.4,47.2L32.9,49c-0.1,0-0.1,0.1-0.1,0.2l-0.2,0.6c0,0.1,0,0.2,0,0.3c0.1,0.1,0.1,0.1,0.2,0.1l0.9,0.1
		l1.8,0.8c0,0,0.1,0,0.2,0l3.5-0.2c0.1,0,0.1,0,0.1,0l2.5-1.5c0.2-0.1,0.2-0.3,0.1-0.4c-0.1-0.2-0.3-0.2-0.4-0.1l-2.4,1.5l-3.4,0.2
		L34,49.7c0,0-0.1,0-0.1,0l-0.6-0.1l0-0.2l2.5-1.7c0.1-0.1,0.2-0.3,0.1-0.4C35.8,47.1,35.6,47.1,35.4,47.2L35.4,47.2z"/>
	<path class="st2" d="M16.1,49.6l2.8-2.2c0.1-0.1,0.2-0.3,0.1-0.4c-0.1-0.1-0.3-0.2-0.4-0.1L15.7,49c-0.1,0.1-0.2,0.3-0.1,0.4
		C15.7,49.6,15.9,49.7,16.1,49.6"/>
	<path class="st2" d="M16.6,49.1l1.4,1.2c0.1,0,0.1,0.1,0.2,0.1l3.6,0.2c0.1,0,0.1,0,0.1,0l2.7-1.2c0.2-0.1,0.2-0.3,0.2-0.4
		c-0.1-0.2-0.3-0.2-0.4-0.2L21.7,50l-3.4-0.2L17,48.6c-0.1-0.1-0.3-0.1-0.4,0S16.4,49,16.6,49.1L16.6,49.1z"/>
	<polyline class="st2" points="19.2,47.2 18.9,48.1 19.4,49.5 21.1,49.7 22,48.8 22,47.2 	"/>
	<polyline class="st2" points="35.6,47.7 35.9,49.4 37.4,50 38.5,49.7 39,48.4 39,47.5 	"/>
	<polygon class="st2" points="30.7,60 28.2,60.7 30.6,60.9 31.6,60.4 	"/>
	<polygon class="st2" points="25.9,60.8 25,60.1 24,60 24.7,60.9 	"/>
	<path class="st2" d="M24.9,47.4l0.6,3l-0.7,6.1c0,0.2,0.1,0.3,0.3,0.4c0.2,0,0.3-0.1,0.4-0.3l0.7-6.1c0,0,0-0.1,0-0.1l-0.6-3
		c0-0.2-0.2-0.3-0.4-0.3C25,47.1,24.9,47.3,24.9,47.4L24.9,47.4z"/>
	<path class="st2" d="M23.5,57.7l-0.7,1.8c0,0.1,0,0.2,0,0.3l0.9,1.5c0.1,0.2,0.3,0.2,0.4,0.1c0.2-0.1,0.2-0.3,0.1-0.4l-0.9-1.4
		l0.7-1.7c0.1-0.2,0-0.3-0.2-0.4C23.7,57.4,23.5,57.5,23.5,57.7L23.5,57.7z"/>
	<path class="st2" d="M31.6,61.6l1-0.6c0.1-0.1,0.1-0.1,0.1-0.2l0.2-1.9c0-0.1,0-0.1,0-0.2l-0.5-1c-0.1-0.2-0.3-0.2-0.4-0.1
		c-0.2,0.1-0.2,0.3-0.1,0.4l0.5,0.9l-0.2,1.6l-0.9,0.6c-0.1,0.1-0.2,0.3-0.1,0.4C31.3,61.6,31.5,61.7,31.6,61.6L31.6,61.6z"/>
	<path class="st2" d="M29.3,56.9l-0.4-6.2l0.5-3.2c0-0.2-0.1-0.3-0.3-0.4c-0.2,0-0.3,0.1-0.4,0.3l-0.5,3.2c0,0,0,0,0,0.1l0.4,6.3
		c0,0.2,0.2,0.3,0.3,0.3C29.1,57.2,29.3,57.1,29.3,56.9L29.3,56.9z"/>
	<path class="st2" d="M35.1,67.3l0.1-0.3l-6-1.5c-0.1,0-0.1,0-0.2,0L27.4,66l0.1,0.3l0.1-0.3c0,0-1.8-0.5-2.1-0.5l0,0
		c0,0-0.1,0-0.1,0c-0.1,0-0.1,0-0.1,0c-0.1,0-0.1,0-0.2,0.1c-0.1,0-0.2,0.1-0.3,0.2c-0.4,0.3-1.1,0.7-1.6,1c-0.5,0.4-1,0.7-1,0.7
		c-0.1,0.1-0.1,0.2-0.1,0.3c0,0.1,0.1,0.2,0.1,0.3l3,2.1c0.1,0,0.1,0.1,0.2,0.1l4.5-0.1c0,0,0.1,0,0.1,0l5.1-2.4
		c0.1-0.1,0.2-0.2,0.2-0.3c0-0.1-0.1-0.2-0.2-0.3L35.1,67.3L35,67l-5,2.4l-4.4,0.1l-2.9-2l-0.2,0.3l0.2,0.3c0,0,0,0,0.1-0.1
		c0.3-0.2,0.9-0.6,1.5-1c0.3-0.2,0.6-0.4,0.8-0.5c0.1-0.1,0.2-0.1,0.3-0.2c0,0,0.1,0,0.1,0l0,0l0,0l0,0l0,0l0,0l0,0l-0.1-0.2v0.2
		c0,0,0,0,0.1,0l-0.1-0.2v0.2v-0.3l-0.1,0.3c0,0,0.1,0,0.1,0v-0.3l-0.1,0.3l0,0c0.1,0,0.6,0.2,1.1,0.3c0.5,0.1,0.9,0.2,0.9,0.2
		c0.1,0,0.1,0,0.2,0l1.5-0.5l5.9,1.5L35.1,67.3L35,67L35.1,67.3z"/>
	<path class="st2" d="M22.4,68.1l0-0.2L22.4,68.1L22.4,68.1l0-0.2L22.4,68.1L22.4,68.1L22.4,68.1L22.4,68.1L22.4,68.1L22.4,68.1
		C22.4,68.1,22.4,68.1,22.4,68.1c0.1,0,0.3,0,0.5,0c0.3,0,0.6,0,0.9,0c0.3,0,0.5,0,0.5,0c0,0,0,0,0.1,0l2-0.4l1.4,0.3
		c0,0,0.1,0,0.1,0l2-0.4l5.4,0c0.2,0,0.3-0.1,0.3-0.3c0-0.2-0.1-0.3-0.3-0.3l-5.4,0l-0.1,0l-1.9,0.4L26.3,67c0,0-0.1,0-0.1,0l-2,0.4
		l0.1,0.3l0-0.3c0,0-0.8,0-1.3,0c-0.1,0-0.3,0-0.4,0c0,0-0.1,0-0.1,0l0,0c0,0,0,0-0.1,0c-0.2,0-0.3,0.2-0.3,0.4
		C22.1,68,22.2,68.1,22.4,68.1L22.4,68.1z"/>
	<polygon class="st2" points="20.4,74.7 17.7,79.1 16,88.1 15.4,96.4 17.1,90.2 20.4,89.6 23.9,92.9 	"/>
	<path class="st2" d="M20.4,74.7l-0.3-0.2l-2.8,4.4c0,0,0,0.1,0,0.1l-1.6,9l0,0L15,96.4c0,0.2,0.1,0.3,0.3,0.3
		c0.2,0,0.3-0.1,0.4-0.2l1.7-6l2.9-0.6l3.3,3.2c0.1,0.1,0.3,0.1,0.4,0.1c0.1-0.1,0.2-0.2,0.2-0.3l-3.4-18.2c0-0.1-0.1-0.2-0.3-0.3
		c-0.1,0-0.3,0-0.3,0.1L20.4,74.7l-0.3,0.1L23.4,92l-2.7-2.6c-0.1-0.1-0.2-0.1-0.3-0.1l-3.3,0.6c-0.1,0-0.2,0.1-0.2,0.2l-0.9,3.1
		l0.4-5.1l1.6-8.9l2.7-4.3L20.4,74.7l-0.3,0.1L20.4,74.7z"/>
	<polygon class="st2" points="24.9,95.3 25.2,91.2 33.5,97.1 54.7,78.2 51.6,67.6 49.8,67.1 48.9,71.7 25,90.5 	"/>
	<path class="st2" d="M24.9,95.3l0.3,0l0.2-3.5l7.8,5.6c0.1,0.1,0.3,0.1,0.4,0l21.3-19c0.1-0.1,0.1-0.2,0.1-0.3l-3.1-10.6
		c0-0.1-0.1-0.2-0.2-0.2l-1.8-0.5c-0.1,0-0.2,0-0.3,0c-0.1,0-0.1,0.1-0.1,0.2l-0.8,4.6L24.8,90.3c-0.1,0.1-0.1,0.2-0.1,0.2l0,4.8
		c0,0.2,0.1,0.3,0.3,0.3c0.2,0,0.3-0.1,0.3-0.3L24.9,95.3l0.3,0l0-4.7L49.1,72c0.1,0,0.1-0.1,0.1-0.2l0.8-4.3l1.3,0.4l3,10.2
		L33.4,96.7L25.4,91c-0.1-0.1-0.2-0.1-0.3,0c-0.1,0.1-0.2,0.2-0.2,0.3l-0.2,4.1L24.9,95.3l0.3,0L24.9,95.3z"/>
	<polygon class="st0" points="13.6,25 22,28.1 36.5,27.9 22.4,25.8 	"/>
	<polygon class="st0" points="15.9,20.2 22.3,21 28.5,23.7 24.5,20.4 	"/>
	<polygon class="st0" points="20.3,15.5 23.9,18.6 28.9,20.1 24.9,17.4 	"/>
	<polygon class="st0" points="46.1,36 46.4,39 50,41.9 50.9,44.8 50.5,40.5 	"/>
	<polygon class="st0" points="21.3,47.3 20.7,47.9 21,48.3 21.6,48 	"/>
	<polygon class="st0" points="38,47.6 37.5,48.3 37.9,48.6 38.4,48.4 	"/>
	<polygon class="st0" points="50.1,71.3 33.8,84.9 29,89 34.8,86.2 43.5,79.6 	"/>
</g>
<g id="Слой_5">
</g>
</svg>
