<svg width="27" height="24" viewBox="0 0 27 24" fill="none" xmlns="http://www.w3.org/2000/svg">
<g clip-path="url(#clip0)">
<path d="M7.75994 23.9861C7.75994 23.1079 7.75994 22.261 7.75994 21.3515C5.49337 21.3515 3.26657 21.3515 1 21.3515C1 21.226 1 21.1633 1 21.0692C1 16.1137 1 11.1896 1 6.23412C1 6.0773 1.03977 5.95184 1.07953 5.79503C1.5567 4.6032 2.07364 3.41137 2.59057 2.21955C2.6701 2.06273 2.74963 2 2.94845 2C11.2194 2 19.4507 2 27.7216 2C27.8012 2 27.8807 2 28 2C28 2.09409 28 2.18818 28 2.28228C28 6.54776 28 10.7819 28 15.0474C28 15.2355 27.9205 15.361 27.7614 15.4865C25.3755 17.3683 22.9897 19.2501 20.6038 21.1319C20.4448 21.2574 20.2857 21.3201 20.0471 21.3201C18.5758 21.3201 17.1443 21.3201 15.673 21.3201C15.3947 21.3201 15.1959 21.3829 14.9971 21.5397C14.0427 22.3238 13.0486 23.0765 12.0943 23.8292C12.0147 23.892 11.8557 23.9861 11.7364 23.9861C10.4242 23.9861 9.15169 23.9861 7.83947 23.9861C7.83947 24.0174 7.7997 23.9861 7.75994 23.9861ZM5.17526 4.03865C5.17526 8.71186 5.17526 13.3851 5.17526 18.0583C7.16348 18.0583 9.11193 18.0583 11.1001 18.0583C11.1001 18.9365 11.1001 19.8147 11.1001 20.7242C11.1797 20.6615 11.2592 20.6301 11.299 20.5674C12.2931 19.7833 13.2872 18.9992 14.2813 18.2151C14.4404 18.0897 14.5596 18.0583 14.7585 18.0583C16.8262 18.0583 18.894 18.0583 20.9617 18.0583C21.1208 18.0583 21.3196 17.9956 21.3991 17.9015C22.6716 16.8978 23.9838 15.8942 25.2563 14.8905C25.4153 14.7651 25.4551 14.671 25.4551 14.5142C25.4551 11.0955 25.4551 7.70822 25.4551 4.28956C25.4551 4.19547 25.4551 4.13274 25.4551 4.03865C18.6951 4.03865 11.9352 4.03865 5.17526 4.03865Z" fill="#E4002B"/>
<path d="M14.4797 8.05376C14.4797 10.0297 14.4797 12.0056 14.4797 13.9815C13.6447 13.9815 12.8096 13.9815 11.9746 13.9815C11.9746 12.0056 11.9746 10.0297 11.9746 8.05376C12.8096 8.05376 13.6049 8.05376 14.4797 8.05376Z" fill="#E4002B"/>
<path d="M21.2046 14.0115C20.3696 14.0115 19.5743 14.0115 18.7393 14.0115C18.7393 12.0356 18.7393 10.0597 18.7393 8.08376C19.5345 8.08376 20.3696 8.08376 21.2046 8.08376C21.2046 10.0283 21.2046 12.0042 21.2046 14.0115Z" fill="#E4002B"/>
</g>
<defs>
<clipPath id="clip0">
<rect width="27" height="24" fill="white"/>
</clipPath>
</defs>
</svg>
