<svg width="28" height="24" viewBox="0 0 28 24" fill="none" xmlns="http://www.w3.org/2000/svg">
<path fill-rule="evenodd" clip-rule="evenodd" d="M28 2.84298C26.9682 3.32342 25.8613 3.64959 24.7 3.79504C25.8863 3.04573 26.797 1.85565 27.223 0.440771C26.1119 1.13719 24.8838 1.63967 23.5763 1.91295C22.5278 0.736088 21.0366 0 19.3824 0C16.2118 0 13.6387 2.71515 13.6387 6.06061C13.6387 6.53664 13.6888 6.99945 13.7891 7.44022C9.01447 7.18898 4.78293 4.77355 1.95077 1.10634C1.45785 2.0011 1.1738 3.04132 1.1738 4.15207C1.1738 6.25455 2.18887 8.11019 3.73027 9.19449C2.79039 9.16364 1.90482 8.89036 1.12785 8.43636C1.12785 8.46281 1.12785 8.48485 1.12785 8.5113C1.12785 11.4468 3.10786 13.8975 5.73534 14.4529C5.25496 14.5895 4.74534 14.6645 4.22318 14.6645C3.85141 14.6645 3.49217 14.6248 3.14128 14.5543C3.8723 16.9609 5.99433 18.7152 8.50485 18.7636C6.53737 20.3901 4.06445 21.3598 1.37013 21.3598C0.90646 21.3598 0.451141 21.3289 0 21.276C2.53976 22.995 5.5599 24 8.80561 24C19.3698 24 25.1469 14.7658 25.1469 6.75703C25.1469 6.49256 25.1428 6.23251 25.1302 5.97245C26.2539 5.11736 27.2272 4.05069 27.9958 2.83416L28 2.84298Z" fill="#E4002B"/>
</svg>
