<svg width="24" height="24" viewBox="0 0 24 24" fill="none" xmlns="http://www.w3.org/2000/svg">
<path fill-rule="evenodd" clip-rule="evenodd" d="M16.5 0H7.5C3.3585 0 0 3.3585 0 7.5V16.5C0 20.6415 3.3585 24 7.5 24H16.5C20.6415 24 24 20.6415 24 16.5V7.5C24 3.3585 20.6415 0 16.5 0ZM21.75 16.5C21.75 19.395 19.395 21.75 16.5 21.75H7.5C4.605 21.75 2.25 19.395 2.25 16.5V7.5C2.25 4.605 4.605 2.25 7.5 2.25H16.5C19.395 2.25 21.75 4.605 21.75 7.5V16.5ZM11.9982 5.99902C8.68467 5.99902 5.99817 8.68552 5.99817 11.999C5.99817 15.3125 8.68467 17.999 11.9982 17.999C15.3117 17.999 17.9982 15.3125 17.9982 11.999C17.9982 8.68552 15.3117 5.99902 11.9982 5.99902ZM11.9982 15.749C9.93117 15.749 8.24817 14.066 8.24817 11.999C8.24817 9.93052 9.93117 8.24902 11.9982 8.24902C14.0652 8.24902 15.7482 9.93052 15.7482 11.999C15.7482 14.066 14.0652 15.749 11.9982 15.749ZM19.2465 5.54761C19.2465 5.98916 18.8885 6.3471 18.447 6.3471C18.0054 6.3471 17.6475 5.98916 17.6475 5.54761C17.6475 5.10606 18.0054 4.74811 18.447 4.74811C18.8885 4.74811 19.2465 5.10606 19.2465 5.54761Z" fill="white"/>
</svg>
