<svg width="32" height="24" viewBox="0 0 32 24" fill="none" xmlns="http://www.w3.org/2000/svg">
<g clip-path="url(#clip0)">
<path d="M31.8 18.4C31.8 18.3 31.7 18.3 31.7 18.2C31.1 17.3 30.1 16.2 28.5 15C27.8 14.4 27.3 14 27.2 13.8C26.9 13.4 26.8 13 27 12.6C27.1 12.3 27.6 11.7 28.5 10.7C29 10.2 29.3 9.8 29.6 9.5C31.5 7.3 32.4 5.8 32.1 5.2L31.9 5C31.8 4.9 31.7 4.8 31.4 4.8C31.1 4.7 30.8 4.7 30.3 4.8H25.5C25.4 4.8 25.3 4.8 25.2 4.8C25.1 4.8 25 4.8 25 4.8H24.9H24.8C24.7 4.8 24.7 4.9 24.6 5C24.5 5.1 24.5 5.2 24.4 5.3C23.9 6.5 23.3 7.6 22.6 8.6C22.2 9.2 21.8 9.7 21.5 10.2C21.2 10.6 20.9 11 20.6 11.2C20.4 11.4 20.2 11.6 20 11.7C19.8 11.8 19.7 11.9 19.6 11.9C19.5 11.9 19.4 11.9 19.3 11.8C19.1 11.7 19 11.6 18.9 11.4C18.8 11.2 18.7 11.1 18.7 10.8C18.7 10.6 18.6 10.4 18.6 10.2C18.6 10 18.6 9.8 18.6 9.5C18.6 9.2 18.6 9 18.6 8.9C18.6 8.5 18.6 8.1 18.6 7.7C18.6 7.3 18.6 6.9 18.6 6.7C18.6 6.4 18.6 6.2 18.6 5.9C18.6 5.6 18.6 5.4 18.5 5.2C18.5 5 18.4 4.9 18.3 4.7C18.2 4.5 18.1 4.4 18 4.3C17.9 4.2 17.7 4.2 17.4 4.1C17.1 4.1 16.3 4 15.4 4C13.3 4 12 4.1 11.4 4.4C11.2 4.5 11 4.7 10.8 4.8C10.6 5 10.6 5.1 10.7 5.2C11.4 5.3 11.8 5.5 12.1 5.8L12.2 6C12.3 6.1 12.4 6.4 12.4 6.7C12.5 7 12.5 7.4 12.5 7.8C12.6 8.5 12.6 9.1 12.5 9.6C12.4 10.1 12.4 10.5 12.3 10.8C12.2 11.1 12.2 11.3 12.1 11.5C12 11.7 11.9 11.8 11.9 11.8L11.8 11.9C11.7 11.9 11.5 12 11.4 12C11.2 12 11.1 11.9 10.8 11.8C10.6 11.7 10.3 11.5 10.1 11.2C9.9 11 9.6 10.6 9.3 10.2C9.1 9.6 8.8 9.1 8.5 8.6L8.2 8.1C8 7.9 7.8 7.5 7.5 6.9C7.2 6.4 7 5.9 6.8 5.4C6.7 5.2 6.5 5.1 6.4 5H6.3C6.2 4.9 6.1 4.8 6 4.8C5.9 4.8 5.8 4.7 5.6 4.7H1C0.6 4.7 0.3 4.8 0.1 5V5.1C0 5.1 0 5.2 0 5.3C0 5.4 0 5.5 0.1 5.7C0.8 7.1 1.5 8.4 2.3 9.7C3.1 11 3.8 12 4.3 12.8C4.9 13.6 5.5 14.3 6.1 15C6.7 15.7 7.1 16.1 7.3 16.3C7.5 16.5 7.6 16.6 7.8 16.7L8.2 17.1C8.5 17.3 8.9 17.6 9.4 17.9C9.9 18.2 10.5 18.5 11.1 18.9C11.7 19.2 12.5 19.5 13.3 19.7C14.1 19.9 14.9 20 15.7 19.9H17.6C18 19.9 18.3 19.8 18.5 19.6L18.6 19.5C18.6 19.4 18.7 19.4 18.7 19.2C18.7 19.1 18.8 18.9 18.8 18.8C18.8 18.4 18.8 18 18.9 17.7C19 17.4 19.1 17.1 19.2 16.9C19.3 16.7 19.4 16.6 19.6 16.5C19.7 16.4 19.8 16.3 19.9 16.3C20 16.3 20 16.3 20 16.2C20.3 16.1 20.6 16.2 20.9 16.4C21.3 16.6 21.6 16.9 21.9 17.2C22.2 17.5 22.6 17.9 23 18.3C23.4 18.7 23.8 19 24.2 19.2L24.5 19.4C24.7 19.5 25 19.6 25.4 19.7C25.7 20 26 20 26.3 20L30.6 19.9C31 19.9 31.4 19.8 31.6 19.7C31.8 19.6 32 19.4 32 19.3C32 19.2 32 19 32 18.8C31.9 18.7 31.9 18.5 31.8 18.4Z" fill="white"/>
</g>
<defs>
<clipPath id="clip0">
<rect width="32" height="24" fill="white"/>
</clipPath>
</defs>
</svg>
