<svg width="24" height="23" fill="none" xmlns="http://www.w3.org/2000/svg">
  <path d="M10.986 1.964A110.173 110.173 0 009.28 5.906l-.799 1.965-.559.066c-.293.04-1.438.134-2.543.214-2.024.147-4.86.481-5.313.615-.2.067.013.32 1.132 1.363 1.291 1.23 3.861 3.474 4.7 4.142l.386.307-.56 2.366c-.638 2.739-1.237 5.746-1.184 6 .04.2 3.648-1.778 6.085-3.341l1.372-.882.759.508c.959.654 4.008 2.458 5.513 3.26 1.105.601 1.158.615 1.158.334 0-.468-.892-4.797-1.332-6.507-.226-.842-.4-1.564-.4-1.617 0-.054.76-.748 1.692-1.537 2.53-2.178 4.727-4.236 4.607-4.343-.146-.133-3.102-.494-5.5-.668-2.982-.227-3.035-.24-3.142-.574C14.967 6.334 12.144 0 11.984 0c-.04 0-.492.882-.998 1.964z" fill="#D72E34"/>
</svg>